<?xml version="1.0" standalone="no"?>
<!DOCTYPE svg PUBLIC "-//W3C//DTD SVG 20010904//EN"
"http://www.w3.org/TR/2001/REC-SVG-20010904/DTD/svg10.dtd">
<svg version="1.0" xmlns="http://www.w3.org/2000/svg"
	width="572.000000pt" height="514.000000pt" viewBox="0 0 572.000000 514.000000"
	preserveAspectRatio="xMidYMid meet">

	<g transform="translate(0.000000,514.000000) scale(0.100000,-0.100000)"
		fill="#ffffff" stroke="none">
		<path d="M10 2570 l0 -2560 2855 0 2855 0 0 2560 0 2560 -2855 0 -2855 0 0
			-2560z m5630 -5 l0 -2485 -2780 0 -2780 0 0 2485 0 2485 2780 0 2780 0 0
			-2485z" />
		<path d="M2400 4920 c0 -15 -7 -20 -25 -20 -18 0 -25 -5 -25 -20 0 -15 7 -20
			25 -20 14 0 25 -3 25 -6 0 -4 -11 -17 -25 -30 -30 -28 -32 -57 -5 -84 34 -34
			25 -71 -45 -180 -53 -81 -70 -100 -89 -100 -41 0 -56 -25 -56 -93 0 -60 -3
			-68 -109 -257 -93 -169 -106 -197 -95 -211 11 -12 14 -74 14 -291 l0 -275 -84
			-69 -85 -69 0 -311 -1 -310 30 -29 30 -29 0 -332 c0 -285 -2 -333 -15 -344 -9
			-7 -16 -11 -18 -9 -1 2 -13 26 -27 53 -14 28 -56 82 -95 121 -224 227 -620
			232 -840 11 -64 -65 -125 -169 -145 -247 l-12 -46 -56 57 c-31 31 -78 66 -103
			78 -84 41 -242 45 -326 10 -29 -13 -21 -14 90 -13 108 0 128 -3 175 -24 102
			-46 173 -166 180 -308 l5 -83 -247 0 -246 0 0 -620 0 -620 510 0 510 0 0 135
			0 136 183 284 c100 157 208 325 240 375 31 50 61 89 66 86 5 -3 94 -130 197
			-281 104 -152 217 -316 252 -366 l62 -90 0 -140 0 -140 143 3 142 3 3 122 3
			122 -241 353 c-133 194 -285 417 -338 495 l-97 143 -92 0 c-68 0 -93 3 -93 13
			0 29 102 216 146 267 131 153 297 234 503 247 73 4 99 1 176 -22 139 -41 217
			-87 315 -185 99 -98 153 -192 194 -332 31 -109 50 -280 42 -380 l-6 -77 -135
			-185 -135 -185 0 -201 0 -200 907 2 907 3 41 70 c24 39 103 172 177 298 l135
			227 194 -299 194 -300 103 0 102 -1 0 435 0 435 -765 0 c-757 0 -765 0 -765
			20 0 41 62 211 113 312 90 176 210 332 359 465 89 80 246 159 393 199 93 26
			114 28 295 28 172 1 205 -2 277 -22 45 -12 86 -22 92 -22 7 0 11 23 11 59 l0
			60 -57 12 c-36 8 -124 13 -228 13 -202 -1 -342 -26 -496 -88 -11 -5 -32 12
			-72 61 -30 37 -85 93 -122 123 -59 50 -169 123 -198 133 -33 11 128 191 235
			264 120 82 211 113 328 113 254 -1 522 -206 584 -447 12 -47 13 -44 19 92 l7
			139 -47 49 c-263 270 -673 300 -945 69 -73 -61 -131 -132 -170 -208 l-31 -60
			-57 23 c-284 114 -634 90 -933 -64 -116 -60 -225 -141 -309 -232 l-68 -71 0
			213 0 214 40 32 40 32 -3 307 -2 307 -92 70 -93 70 0 277 c0 174 4 279 10 283
			6 3 10 13 10 21 0 9 -52 102 -115 208 -110 184 -115 195 -115 249 0 59 -16 87
			-50 87 -24 0 -160 198 -160 233 0 14 9 31 22 39 26 18 30 75 5 93 -23 17 -21
			35 3 35 13 0 20 7 20 20 0 13 -7 20 -20 20 -13 0 -20 7 -20 20 0 13 -7 20 -20
			20 -13 0 -20 -7 -20 -20z m102 -657 c53 -180 96 -329 94 -330 -3 -4 -561 -5
			-561 -1 0 2 44 90 98 195 85 168 97 197 97 242 0 49 1 51 28 51 23 1 35 13 82
			85 30 47 57 85 60 85 3 0 49 -147 102 -327z m78 -648 l0 -255 -275 0 -275 0 0
			255 0 255 275 0 275 0 0 -255z m23 -332 c8 -16 18 -38 21 -50 l7 -23 -368 0
			-368 1 55 49 55 50 292 0 292 0 14 -27z m-633 -300 l0 -183 -50 0 -50 0 0 179
			c0 198 -4 186 67 186 l33 0 0 -182z m966 177 l54 0 0 -180 0 -180 -70 0 -70 0
			0 186 c0 166 2 185 16 180 9 -3 40 -6 70 -6z m-856 -180 l0 -180 -25 0 -25 0
			0 180 0 180 25 0 25 0 0 -180z m260 0 l0 -180 -100 0 -100 0 0 180 0 180 100
			0 100 0 0 -180z m250 0 l0 -180 -95 0 -95 0 0 180 0 180 95 0 95 0 0 -180z
			m390 -305 l0 -85 -555 0 -555 0 0 85 0 85 555 0 555 0 0 -85z m-430 -426 l0
			-251 -57 8 c-163 25 -343 -3 -485 -76 l-78 -39 0 305 0 304 310 0 310 0 0
			-251z m1340 190 c131 -16 236 -46 340 -96 78 -38 109 -61 175 -127 49 -49 93
			-105 113 -143 l32 -61 -67 -50 c-240 -179 -466 -533 -533 -835 l-13 -57 -355
			2 -354 3 -4 95 c-10 218 -61 374 -169 518 -43 57 -137 145 -181 170 -15 8 -14
			12 4 48 51 99 187 256 297 343 218 172 424 227 715 190z m-2505 -314 c170 -45
			299 -172 349 -347 l17 -55 -44 -70 c-24 -39 -54 -103 -67 -142 l-25 -71 -412
			0 -413 0 0 60 c0 57 -30 170 -51 196 -24 29 65 198 151 285 128 130 326 187
			495 144z" />
	</g>
</svg>